<?xml version="1.0" encoding="UTF-8" standalone="no"?>
<!-- Created with Inkscape (http://www.inkscape.org/) -->

<svg
   version="1.1"
   id="svg2"
   xml:space="preserve"
   width="446.008"
   height="272.09732"
   viewBox="0 0 446.008 272.09732"
   sodipodi:docname="diagram.svg"
   inkscape:version="1.1.2 (b8e25be833, 2022-02-05)"
   xmlns:inkscape="http://www.inkscape.org/namespaces/inkscape"
   xmlns:sodipodi="http://sodipodi.sourceforge.net/DTD/sodipodi-0.dtd"
   xmlns="http://www.w3.org/2000/svg"
   xmlns:svg="http://www.w3.org/2000/svg"><defs
     id="defs6" /><sodipodi:namedview
     id="namedview4"
     pagecolor="#ffffff"
     bordercolor="#666666"
     borderopacity="1.0"
     inkscape:pageshadow="2"
     inkscape:pageopacity="0.0"
     inkscape:pagecheckerboard="0"
     showgrid="false"
     inkscape:zoom="2.4125128"
     inkscape:cx="222.79675"
     inkscape:cy="135.95783"
     inkscape:window-width="1920"
     inkscape:window-height="1009"
     inkscape:window-x="-1928"
     inkscape:window-y="-8"
     inkscape:window-maximized="1"
     inkscape:current-layer="g8" /><g
     id="g8"
     inkscape:groupmode="layer"
     inkscape:label="diagram"
     transform="matrix(1.3333333,0,0,-1.3333333,172.10533,176.72133)"><g
       id="g10"><g
         id="g12"><g
           id="g14"><g
             id="g16"><path
               d="M 0,-66.15303 113.38766,-9.46028 M -9.071,-61.61745 104.31665,-4.92468 M -18.142,-57.08185 95.24565,-0.3891 M -27.21301,-52.54626 86.17464,4.14647 M -36.28401,-48.01068 77.10364,8.68205 M -45.35503,-43.47508 68.03264,13.21765 M -54.42603,-38.9395 58.96162,17.75325 M -63.49702,-34.40392 49.89063,22.28883 M -72.56804,-29.86832 40.81961,26.82442 M -81.63904,-25.33272 31.74861,31.36002 M -90.71005,-20.79713 22.6776,35.8956 M -99.78105,-16.26155 13.6066,40.43118 M -108.85205,-11.72597 4.5356,44.96678 M 0,-66.15303 -113.38766,-9.45811 M 9.071,-61.61763 -104.31665,-4.92271 M 18.142,-57.0822 -95.24565,-0.3873 M 27.21301,-52.54678 -86.17464,4.14812 M 36.28401,-48.01137 -77.10364,8.68353 M 45.35503,-43.47595 -68.03264,13.21895 M 54.42603,-38.94054 -58.96162,17.75436 M 63.49702,-34.40512 -49.89063,22.28976 M 72.56804,-29.8697 -40.81961,26.8252 M 81.63904,-25.33429 -31.74861,31.36061 M 90.71005,-20.79887 -22.6776,35.89603 M 99.78105,-16.26344 -13.6066,40.43144 M 108.85205,-11.72803 -4.5356,44.96687"
               style="fill:none;stroke:#000000;stroke-width:0.3985;stroke-linecap:butt;stroke-linejoin:miter;stroke-miterlimit:10;stroke-dasharray:none;stroke-opacity:1"
               id="path18" /></g><g
             id="g20"><path
               d="M 0,-66.15303 -113.38766,-9.45811 0,47.23462 113.38766,-9.46028 Z"
               style="fill:none;stroke:#000000;stroke-width:0.79701;stroke-linecap:butt;stroke-linejoin:miter;stroke-miterlimit:10;stroke-dasharray:none;stroke-opacity:1"
               id="path22" /></g><path
             d="M 0,-19.66405 -6.80331,-16.26231 0,-12.8607 6.80331,-16.26244 Z"
             style="fill:#000000;fill-opacity:1;fill-rule:nonzero;stroke:none"
             id="path24" /><path
             d="m -9.07123,-24.19957 -6.80333,3.40173 6.80335,3.40162 6.80333,-3.40174 z"
             style="fill:#000000;fill-opacity:1;fill-rule:nonzero;stroke:none"
             id="path26" /><path
             d="m 9.07086,-15.1287 -6.80333,3.40174 6.80335,3.4016 6.80332,-3.40172 z"
             style="fill:#000000;fill-opacity:1;fill-rule:nonzero;stroke:none"
             id="path28" /><path
             d="m -9.07086,-15.12851 -6.80334,3.40173 6.80332,3.4016 6.80335,-3.40172 z"
             style="fill:#000000;fill-opacity:1;fill-rule:nonzero;stroke:none"
             id="path30" /><path
             d="m 2.26788,-20.798 6.80335,-3.40174 6.80333,3.40161 -6.80335,3.40173 z"
             style="fill:#000000;fill-opacity:1;fill-rule:nonzero;stroke:none"
             id="path32" /><path
             d="m -18.14209,-19.66405 -6.80334,3.40174 6.80334,3.40161 6.80333,-3.40174 z"
             style="fill:#000000;fill-opacity:1;fill-rule:nonzero;stroke:none"
             id="path34" /><path
             d="M 0,-10.59317 -6.80333,-7.19144 0,-3.78983 6.80333,-7.19156 Z"
             style="fill:#000000;fill-opacity:1;fill-rule:nonzero;stroke:none"
             id="path36" /><path
             d="m 18.14209,-12.86105 6.80334,-3.40174 -6.80334,-3.40159 -6.80333,3.40172 z"
             style="fill:#000000;fill-opacity:1;fill-rule:nonzero;stroke:none"
             id="path38" /><path
             d="M -6.80333,-25.33353 0,-28.73526 6.80333,-25.33365 0,-21.93192 Z"
             style="fill:#000000;fill-opacity:1;fill-rule:nonzero;stroke:none"
             id="path40" /><path
             d="M -6.80333,-34.4044 0,-37.80614 6.80333,-34.40453 0,-31.0028 Z"
             style="fill:#000000;fill-opacity:1;fill-rule:nonzero;stroke:none"
             id="path42" /><path
             d="m -15.8742,-38.93976 6.80334,-3.40173 6.80298,3.40143 -6.80335,3.40173 z"
             style="fill:#000000;fill-opacity:1;fill-rule:nonzero;stroke:none"
             id="path44" /><path
             d="M -6.80296,-43.47545 0,-46.87701 6.80296,-43.47559 0,-40.07402 Z"
             style="fill:#000000;fill-opacity:1;fill-rule:nonzero;stroke:none"
             id="path46" /><path
             d="m 11.33876,-43.47563 6.80333,-3.40174 6.80334,3.40162 -6.80334,3.40173 z"
             style="fill:#000000;fill-opacity:1;fill-rule:nonzero;stroke:none"
             id="path48" /></g><g
           id="g50"><g
             id="g52"><path
               d="M 0,0 -113.38766,56.6949 0,113.38766 113.38766,56.69275 Z"
               style="fill:#ffffff;fill-opacity:0.9;fill-rule:nonzero;stroke:none"
               id="path54" /></g><g
             id="g56"><path
               d="M 0,0 113.38766,56.69275 M -9.071,4.53558 104.31665,61.22833 M -18.142,9.07117 95.24565,65.76392 M -27.21301,13.60675 86.17464,70.2995 M -36.28401,18.14233 77.10364,74.83508 M -45.35503,22.67793 68.03264,79.3707 M -54.42603,27.21353 58.96162,83.90628 M -63.49702,31.74911 49.89063,88.44186 M -72.56804,36.2847 40.81961,92.97745 M -81.63904,40.8203 31.74861,97.51305 M -90.71005,45.35588 22.6776,102.04865 M -99.78105,49.89146 13.6066,106.58423 M -108.85205,54.42706 4.5356,111.11981 M 0,0 -113.38766,56.6949 M 9.071,4.5354 -104.31665,61.2303 M 18.142,9.07082 -95.24565,65.76573 M 27.21301,13.60623 -86.17464,70.30115 M 36.28401,18.14165 -77.10364,74.83656 M 45.35503,22.67708 -68.03264,79.37198 M 54.42603,27.2125 -58.96162,83.90741 M 63.49702,31.7479 -49.89063,88.44281 M 72.56804,36.28331 -40.81961,92.97823 M 81.63904,40.81874 -31.74861,97.51364 M 90.71005,45.35416 -22.6776,102.04906 M 99.78105,49.88957 -13.6066,106.58449 M 108.85205,54.42499 -4.5356,111.1199"
               style="fill:none;stroke:#000000;stroke-width:0.3985;stroke-linecap:butt;stroke-linejoin:miter;stroke-miterlimit:10;stroke-dasharray:none;stroke-opacity:1"
               id="path58" /></g><g
             id="g60"><path
               d="M 0,0 -113.38766,56.6949 0,113.38766 113.38766,56.69275 Z"
               style="fill:none;stroke:#000000;stroke-width:0.79701;stroke-linecap:butt;stroke-linejoin:miter;stroke-miterlimit:10;stroke-dasharray:none;stroke-opacity:1"
               id="path62" /></g><path
             d="M 0,46.48898 -6.80331,49.89072 0,53.29233 6.80331,49.8906 Z"
             style="fill:#000000;fill-opacity:1;fill-rule:nonzero;stroke:none"
             id="path64" /><path
             d="m -9.07123,41.95346 -6.80333,3.40172 6.80335,3.40161 6.80333,-3.40172 z"
             style="fill:#000000;fill-opacity:1;fill-rule:nonzero;stroke:none"
             id="path66" /><path
             d="m 9.07086,51.02432 -6.80333,3.40174 6.80335,3.40161 6.80332,-3.40174 z"
             style="fill:#000000;fill-opacity:1;fill-rule:nonzero;stroke:none"
             id="path68" /><path
             d="m -9.07086,51.0245 -6.80334,3.40174 6.80332,3.40161 6.80335,-3.40173 z"
             style="fill:#000000;fill-opacity:1;fill-rule:nonzero;stroke:none"
             id="path70" /><path
             d="m 2.26788,45.35503 6.80335,-3.40173 6.80333,3.4016 -6.80335,3.40172 z"
             style="fill:#000000;fill-opacity:1;fill-rule:nonzero;stroke:none"
             id="path72" /><path
             d="m -18.14209,46.48898 -6.80334,3.40174 6.80334,3.40161 6.80333,-3.40173 z"
             style="fill:#000000;fill-opacity:1;fill-rule:nonzero;stroke:none"
             id="path74" /><path
             d="M 0,55.55984 -6.80333,58.96158 0,62.36319 6.80333,58.96146 Z"
             style="fill:#000000;fill-opacity:1;fill-rule:nonzero;stroke:none"
             id="path76" /><path
             d="m 18.14209,53.29198 6.80334,-3.40174 -6.80334,-3.40161 -6.80333,3.40174 z"
             style="fill:#000000;fill-opacity:1;fill-rule:nonzero;stroke:none"
             id="path78" /><path
             d="M -6.80333,40.81949 0,37.41776 6.80333,40.81937 0,44.2211 Z"
             style="fill:#000000;fill-opacity:1;fill-rule:nonzero;stroke:none"
             id="path80" /><g
             id="g82"><path
               d="M -6.80333,31.74861 0,28.34688 6.80333,31.74849 0,35.15022 Z"
               style="fill:#ff8000;fill-opacity:1;fill-rule:nonzero;stroke:none"
               id="path84" /></g><g
             id="g86"><path
               d="m -15.8742,27.21327 6.80334,-3.40173 6.80298,3.40143 -6.80335,3.40173 z"
               style="fill:#ff8000;fill-opacity:1;fill-rule:nonzero;stroke:none"
               id="path88" /></g><g
             id="g90"><path
               d="M -6.80296,22.67757 0,19.27602 6.80296,22.67744 0,26.079 Z"
               style="fill:#ff8000;fill-opacity:1;fill-rule:nonzero;stroke:none"
               id="path92" /></g><g
             id="g94"><path
               d="m 11.33876,22.6774 6.80333,-3.40173 6.80334,3.40161 -6.80334,3.40172 z"
               style="fill:#0000ff;fill-opacity:1;fill-rule:nonzero;stroke:none"
               id="path96" /></g></g><g
           id="g98"><path
             d="m -68.0326,113.38766 c 39.337,0 58.96174,-42.30227 58.96174,-76.97679"
             style="fill:none;stroke:#ff8000;stroke-width:0.79701;stroke-linecap:butt;stroke-linejoin:miter;stroke-miterlimit:10;stroke-dasharray:none;stroke-opacity:1"
             id="path100" /><g
             id="g102"
             transform="rotate(-90,13.670005,22.740865)"><g
               id="g104"><path
                 d="M 4.66248,0 C 3.28098,0.25902 1.0361,1.0361 -0.51805,1.94269 V -1.94269 C 1.0361,-1.0361 3.28098,-0.25902 4.66248,0"
                 style="fill:#ff8000;fill-opacity:1;fill-rule:nonzero;stroke:none"
                 id="path106" /></g></g><g
             id="g108"><g
               id="g110"
               transform="translate(-82.603,113.386)"><g
                 id="g112" /><g
                 id="g114"
                 transform="translate(82.603,-113.386)" /></g></g></g><g
           id="g116"><path
             d="m -68.0326,113.38766 c 48.07859,0 86.17466,-39.23008 86.17466,-82.64617"
             style="fill:none;stroke:#0000ff;stroke-width:0.79701;stroke-linecap:butt;stroke-linejoin:miter;stroke-miterlimit:10;stroke-dasharray:none;stroke-opacity:1"
             id="path118" /><g
             id="g120"
             transform="rotate(-90,24.441775,6.299715)"><g
               id="g122"><path
                 d="M 4.66248,0 C 3.28098,0.25902 1.0361,1.0361 -0.51805,1.94269 V -1.94269 C 1.0361,-1.0361 3.28098,-0.25902 4.66248,0"
                 style="fill:#0000ff;fill-opacity:1;fill-rule:nonzero;stroke:none"
                 id="path124" /></g></g><g
             id="g126"><g
               id="g128"
               transform="translate(-82.603,113.386)"><g
                 id="g130" /><g
                 id="g132"
                 transform="translate(82.603,-113.386)" /></g></g></g><g
           id="g134"><path
             d="M -68.0326,113.38766 C -35.09346,113.38766 0,96.43628 0,68.1596"
             style="fill:none;stroke:#000000;stroke-width:0.79701;stroke-linecap:butt;stroke-linejoin:miter;stroke-miterlimit:10;stroke-dasharray:none;stroke-opacity:1"
             id="path136" /><g
             id="g138"
             transform="rotate(-90,34.0798,34.0798)"><g
               id="g140"><path
                 d="M 4.66248,0 C 3.28098,0.25902 1.0361,1.0361 -0.51805,1.94269 V -1.94269 C 1.0361,-1.0361 3.28098,-0.25902 4.66248,0"
                 style="fill:#000000;fill-opacity:1;fill-rule:nonzero;stroke:none"
                 id="path142" /></g></g><g
             id="g144"><g
               id="g146"
               transform="translate(-120.196,110.397)"><g
                 id="g148"><g
                   id="g150"
                   transform="translate(-8.883,-181.929)"><text
                     transform="matrix(1,0,0,-1,8.883,181.929)"
                     style="font-variant:normal;font-weight:normal;font-size:11.9552px;font-family:CMR12;-inkscape-font-specification:CMR12;writing-mode:lr-tb;fill:#000000;fill-opacity:1;fill-rule:nonzero;stroke:none"
                     id="text154"><tspan
                       x="0 9.7506609 16.25429 22.107555 26.660095 31.540209 38.043839 43.246742"
                       y="0"
                       sodipodi:role="line"
                       id="tspan152">3parches</tspan></text><g
                     id="g156"
                     transform="translate(8.883,181.929)" /></g></g><g
                 id="g158"
                 transform="translate(120.196,-110.397)" /></g></g></g><g
           id="g160"><path
             d="m -68.0326,-45.35506 c 20.20263,0 26.37073,18.03562 40.97385,23.35083"
             style="fill:none;stroke:#000000;stroke-width:0.79701;stroke-linecap:butt;stroke-linejoin:miter;stroke-miterlimit:10;stroke-dasharray:none;stroke-opacity:1"
             id="path162" /><g
             id="g164"
             transform="matrix(0.93968,0.34201,-0.34201,0.93968,-27.05875,-22.00423)"><g
               id="g166"><path
                 d="M 4.66248,0 C 3.28098,0.25902 1.0361,1.0361 -0.51805,1.94269 V -1.94269 C 1.0361,-1.0361 3.28098,-0.25902 4.66248,0"
                 style="fill:#000000;fill-opacity:1;fill-rule:nonzero;stroke:none"
                 id="path168" /></g></g><g
             id="g170"><g
               id="g172"
               transform="translate(-115.579,-48.343)"><g
                 id="g174"><g
                   id="g176"
                   transform="translate(-13.5,-23.189)"><text
                     transform="matrix(1,0,0,-1,13.5,23.189)"
                     style="font-variant:normal;font-weight:normal;font-size:11.9552px;font-family:CMR12;-inkscape-font-specification:CMR12;writing-mode:lr-tb;fill:#000000;fill-opacity:1;fill-rule:nonzero;stroke:none"
                     id="text180"><tspan
                       x="0 9.7506609 16.25429 22.107555 26.660095 31.540209 38.043839"
                       y="0"
                       sodipodi:role="line"
                       id="tspan178">1parche</tspan></text><g
                     id="g182"
                     transform="translate(13.5,23.189)" /></g></g><g
                 id="g184"
                 transform="translate(115.579,48.343)" /></g></g></g><g
           id="g186"><g
             id="g188"><g
               id="g190"
               transform="translate(75.583,87.72)"><g
                 id="g192"><g
                   id="g194"
                   transform="translate(-204.662,-159.252)"><text
                     transform="matrix(1,0,0,-1,204.662,159.252)"
                     style="font-variant:normal;font-weight:normal;font-size:11.9552px;font-family:CMR12;-inkscape-font-specification:CMR12;writing-mode:lr-tb;fill:#595959;fill-opacity:1;fill-rule:nonzero;stroke:none"
                     id="text198"><tspan
                       x="0 4.5525403 9.7554436 15.608709 18.860523 28.611185 35.114815 44.227066 50.07077 55.27367 61.777302 66.980202 70.232018 76.735649 83.239273 89.092545 99.505524 106.00915 115.10945"
                       y="0"
                       sodipodi:role="line"
                       id="tspan196">regladevencindadde4</tspan></text><g
                     id="g200"
                     transform="translate(204.662,159.252)" /></g></g><g
                 id="g202"
                 transform="translate(-75.583,-87.72)" /></g></g></g><g
           id="g204"><g
             id="g206"><g
               id="g208"
               transform="translate(78.834,-48.343)"><g
                 id="g210"><g
                   id="g212"
                   transform="translate(-207.913,-23.189)"><text
                     transform="matrix(1,0,0,-1,207.913,23.189)"
                     style="font-variant:normal;font-weight:normal;font-size:11.9552px;font-family:CMR12;-inkscape-font-specification:CMR12;writing-mode:lr-tb;fill:#595959;fill-opacity:1;fill-rule:nonzero;stroke:none"
                     id="text216"><tspan
                       x="0 4.5525403 9.7554436 15.608709 18.860523 28.611185 35.114815 44.227066 50.07077 55.27367 61.777302 66.980202 70.232018 76.735649 82.588913 93.001892 99.505524 108.60582"
                       y="0"
                       sodipodi:role="line"
                       id="tspan214">regladevencidadde8</tspan></text><g
                     id="g218"
                     transform="translate(207.913,23.189)" /></g></g><g
                 id="g220"
                 transform="translate(-78.834,48.343)" /></g></g></g></g></g></g></svg>
