<?xml version="1.0" encoding="UTF-8" standalone="no"?>
<!-- Created with Inkscape (http://www.inkscape.org/) -->

<svg
   version="1.1"
   id="svg2"
   xml:space="preserve"
   width="449.056"
   height="431.608"
   viewBox="0 0 449.056 431.608"
   sodipodi:docname="Scatter_AE.svg"
   inkscape:version="1.1.2 (b8e25be833, 2022-02-05)"
   xmlns:inkscape="http://www.inkscape.org/namespaces/inkscape"
   xmlns:sodipodi="http://sodipodi.sourceforge.net/DTD/sodipodi-0.dtd"
   xmlns="http://www.w3.org/2000/svg"
   xmlns:svg="http://www.w3.org/2000/svg"><defs
     id="defs6" /><sodipodi:namedview
     id="namedview4"
     pagecolor="#ffffff"
     bordercolor="#666666"
     borderopacity="1.0"
     inkscape:pageshadow="2"
     inkscape:pageopacity="0.0"
     inkscape:pagecheckerboard="0"
     showgrid="false"
     inkscape:zoom="1.9068229"
     inkscape:cx="224.71935"
     inkscape:cy="216.06622"
     inkscape:window-width="1920"
     inkscape:window-height="1009"
     inkscape:window-x="-1928"
     inkscape:window-y="-8"
     inkscape:window-maximized="1"
     inkscape:current-layer="g8" /><g
     id="g8"
     inkscape:groupmode="layer"
     inkscape:label="Scatter_AE"
     transform="matrix(1.3333333,0,0,-1.3333333,214.73599,215.04801)"><g
       id="g10"><g
         id="g12"><g
           id="g14"><path
             d="m -141.73404,-141.73404 h 283.46808 m -283.46808,28.3468 h 283.46808 m -283.46808,28.34682 h 283.46808 m -283.46808,28.3468 H 141.73404 M -141.73404,-28.3468 H 141.73404 M -141.73404,0 h 283.46808 m -283.46808,28.3468 h 283.46808 m -283.46808,28.34682 h 283.46808 m -283.46808,28.3468 h 283.46808 m -283.46808,28.34682 h 283.46808 m -283.46808,28.33685 h 283.46808 m -283.46808,-283.45813 v 283.46808 m 28.3468,-283.46808 v 283.46808 m 28.34682,-283.46808 v 283.46808 m 28.3468,-283.46808 V 141.73404 M -28.3468,-141.73404 V 141.73404 M 0,-141.73404 v 283.46808 m 28.3468,-283.46808 v 283.46808 m 28.34682,-283.46808 v 283.46808 m 28.3468,-283.46808 v 283.46808 m 28.34682,-283.46808 v 283.46808 m 28.33685,-283.46808 v 283.46808"
             style="fill:none;stroke:#808080;stroke-width:0.19925;stroke-linecap:butt;stroke-linejoin:miter;stroke-miterlimit:10;stroke-dasharray:none;stroke-opacity:1"
             id="path16" /></g><g
           id="g18"><path
             d="M -141.73404,-141.73404 H 155.20007"
             style="fill:none;stroke:#000000;stroke-width:0.79701;stroke-linecap:butt;stroke-linejoin:miter;stroke-miterlimit:10;stroke-dasharray:none;stroke-opacity:1"
             id="path20" /><g
             id="g22"
             transform="translate(155.20007,-141.73404)"><g
               id="g24"><path
                 d="M -1.55415,2.0722 C -1.42464,1.29512 0,0.1295 0.38852,0 0,-0.1295 -1.42464,-1.29512 -1.55415,-2.0722"
                 style="fill:none;stroke:#000000;stroke-width:0.6376;stroke-linecap:round;stroke-linejoin:round;stroke-miterlimit:10;stroke-dasharray:none;stroke-opacity:1"
                 id="path26" /></g></g><g
             id="g28"><g
               id="g30"
               transform="translate(160.205,-151.179)"><g
                 id="g32"><g
                   id="g34"
                   transform="translate(-321.257,-11.241)"><text
                     transform="matrix(1,0,0,-1,321.257,11.241)"
                     style="font-variant:normal;font-weight:normal;font-size:11.9552px;font-family:CMMI12;-inkscape-font-specification:CMMI12;writing-mode:lr-tb;fill:#000000;fill-opacity:1;fill-rule:nonzero;stroke:none"
                     id="text38"><tspan
                       x="0"
                       y="0"
                       id="tspan36">x</tspan></text><g
                     id="g40"
                     transform="translate(321.257,11.241)" /></g></g><g
                 id="g42"
                 transform="translate(-160.205,151.179)" /></g></g></g><g
           id="g44"><path
             d="M -141.73404,-141.73404 V 155.20007"
             style="fill:none;stroke:#000000;stroke-width:0.79701;stroke-linecap:butt;stroke-linejoin:miter;stroke-miterlimit:10;stroke-dasharray:none;stroke-opacity:1"
             id="path46" /><g
             id="g48"
             transform="rotate(90,-148.46705,6.733015)"><g
               id="g50"><path
                 d="M -1.55415,2.0722 C -1.42464,1.29512 0,0.1295 0.38852,0 0,-0.1295 -1.42464,-1.29512 -1.55415,-2.0722"
                 style="fill:none;stroke:#000000;stroke-width:0.6376;stroke-linecap:round;stroke-linejoin:round;stroke-miterlimit:10;stroke-dasharray:none;stroke-opacity:1"
                 id="path52" /></g></g><g
             id="g54"><g
               id="g56"
               transform="translate(-152.169,146.458)"><g
                 id="g58"><g
                   id="g60"
                   transform="translate(-8.883,-308.878)"><text
                     transform="matrix(1,0,0,-1,8.883,308.878)"
                     style="font-variant:normal;font-weight:normal;font-size:11.9552px;font-family:CMMI12;-inkscape-font-specification:CMMI12;writing-mode:lr-tb;fill:#000000;fill-opacity:1;fill-rule:nonzero;stroke:none"
                     id="text64"><tspan
                       x="0"
                       y="0"
                       id="tspan62">y</tspan></text><g
                     id="g66"
                     transform="translate(8.883,308.878)" /></g></g><g
                 id="g68"
                 transform="translate(152.169,-146.458)" /></g></g></g><g
           id="g70"><path
             d="m 1.99255,-141.73404 c 0,1.10046 -0.89209,1.99255 -1.99255,1.99255 -1.10046,0 -1.99255,-0.89209 -1.99255,-1.99255 0,-1.10048 0.89209,-1.99256 1.99255,-1.99256 1.10046,0 1.99255,0.89208 1.99255,1.99256 z"
             style="fill:#000000;fill-opacity:1;fill-rule:nonzero;stroke:#000000;stroke-width:0.3985;stroke-linecap:butt;stroke-linejoin:miter;stroke-miterlimit:10;stroke-dasharray:none;stroke-opacity:1"
             id="path72" /><g
             id="g74"><g
               id="g76"
               transform="translate(-2.927,-153.537)"><g
                 id="g78"><g
                   id="g80"
                   transform="translate(-158.125,-8.883)"><text
                     transform="matrix(1,0,0,-1,158.125,8.883)"
                     style="font-variant:normal;font-weight:normal;font-size:11.9552px;font-family:CMR12;-inkscape-font-specification:CMR12;writing-mode:lr-tb;fill:#000000;fill-opacity:1;fill-rule:nonzero;stroke:none"
                     id="text84"><tspan
                       x="0"
                       y="0"
                       id="tspan82">0</tspan></text><g
                     id="g86"
                     transform="translate(158.125,8.883)" /></g></g><g
                 id="g88"
                 transform="translate(2.927,153.537)" /></g></g></g><g
           id="g90"><path
             d="m -139.74149,0 c 0,1.10046 -0.89209,1.99255 -1.99255,1.99255 -1.10048,0 -1.99256,-0.89209 -1.99256,-1.99255 0,-1.10046 0.89208,-1.99255 1.99256,-1.99255 1.10046,0 1.99255,0.89209 1.99255,1.99255 z"
             style="fill:#000000;fill-opacity:1;fill-rule:nonzero;stroke:#000000;stroke-width:0.3985;stroke-linecap:butt;stroke-linejoin:miter;stroke-miterlimit:10;stroke-dasharray:none;stroke-opacity:1"
             id="path92" /><g
             id="g94"><g
               id="g96"
               transform="translate(-151.686,-3.852)"><g
                 id="g98"><g
                   id="g100"
                   transform="translate(-9.366,-158.568)"><text
                     transform="matrix(1,0,0,-1,9.366,158.568)"
                     style="font-variant:normal;font-weight:normal;font-size:11.9552px;font-family:CMR12;-inkscape-font-specification:CMR12;writing-mode:lr-tb;fill:#000000;fill-opacity:1;fill-rule:nonzero;stroke:none"
                     id="text104"><tspan
                       x="0"
                       y="0"
                       id="tspan102">0</tspan></text><g
                     id="g106"
                     transform="translate(9.366,158.568)" /></g></g><g
                 id="g108"
                 transform="translate(151.686,3.852)" /></g></g></g><g
           id="g110"><path
             d="M 0,0 V 141.73404 H 141.73404 V 0 Z"
             style="fill:none;stroke:#ff0000;stroke-width:0.79701;stroke-linecap:butt;stroke-linejoin:miter;stroke-miterlimit:10;stroke-dasharray:none;stroke-opacity:1"
             id="path112" /></g><g
           id="g114"><path
             d="m 28.3468,28.3468 v 85.04044 h 85.04044 V 28.3468 Z"
             style="fill:#ffcccc;fill-opacity:0.6;fill-rule:nonzero;stroke:#000000;stroke-width:0.3985;stroke-linecap:butt;stroke-linejoin:miter;stroke-miterlimit:10;stroke-dasharray:none;stroke-opacity:0.6"
             id="path116" /></g><g
           id="g118"><g
             id="g120"><path
               d="m 38.61858,49.25795 h 64.49684 V 97.24432 H 38.61858 Z"
               style="fill:#ffcccc;fill-opacity:1;fill-rule:nonzero;stroke:none"
               id="path122" /></g><g
             id="g124"
             transform="translate(42.519,85.04)"><g
               id="g126"
               transform="translate(4.287)"><g
                 id="g128"
                 transform="translate(-207.858,-247.46)"><text
                   transform="matrix(1,0,0,-1,207.858,247.46)"
                   style="font-variant:normal;font-weight:normal;font-size:11.9552px;font-family:CMR12;-inkscape-font-specification:CMR12;writing-mode:lr-tb;fill:#000000;fill-opacity:1;fill-rule:nonzero;stroke:none"
                   id="text136"><tspan
                     x="0 8.7751169 12.026931 16.579472 26.330132 31.533035 41.946014"
                     y="0"
                     sodipodi:role="line"
                     id="tspan130">Altoenx</tspan><tspan
                     x="0 8.7751169 12.026931 16.579472 26.330132 31.533035 41.946014"
                     y="14.446"
                     sodipodi:role="line"
                     id="tspan132">Altoeny</tspan><tspan
                     x="8.4519997 13.00454 26.007015 35.112095"
                     y="28.892"
                     sodipodi:role="line"
                     id="tspan134">(++)</tspan></text><g
                   id="g138"
                   transform="translate(203.571,247.46)" /></g></g><g
               id="g140"
               transform="translate(-42.519,-85.04)" /></g></g><g
           id="g142"><path
             d="M 0,0 V -141.73404 H 141.73404 V 0 Z"
             style="fill:none;stroke:#0000ff;stroke-width:0.79701;stroke-linecap:butt;stroke-linejoin:miter;stroke-miterlimit:10;stroke-dasharray:none;stroke-opacity:1"
             id="path144" /></g><g
           id="g146"><path
             d="m 28.3468,-28.3468 v -85.04044 h 85.04044 v 85.04044 z"
             style="fill:#ccccff;fill-opacity:0.6;fill-rule:nonzero;stroke:#000000;stroke-width:0.3985;stroke-linecap:butt;stroke-linejoin:miter;stroke-miterlimit:10;stroke-dasharray:none;stroke-opacity:0.6"
             id="path148" /></g><g
           id="g150"><g
             id="g152"><path
               d="m 38.61858,-92.47609 h 64.49684 v 47.85355 H 38.61858 Z"
               style="fill:#ccccff;fill-opacity:1;fill-rule:nonzero;stroke:none"
               id="path154" /></g><g
             id="g156"
             transform="translate(42.519,-56.693)"><g
               id="g158"
               transform="translate(6.076)"><g
                 id="g160"
                 transform="translate(-209.647,-105.727)"><text
                   transform="matrix(1,0,0,-1,209.647,105.727)"
                   style="font-variant:normal;font-weight:normal;font-size:11.9552px;font-family:CMR12;-inkscape-font-specification:CMR12;writing-mode:lr-tb;fill:#000000;fill-opacity:1;fill-rule:nonzero;stroke:none"
                   id="text168"><tspan
                     x="0 8.4523268 13.004867 22.755527 27.958431 38.359455"
                     y="0"
                     sodipodi:role="line"
                     id="tspan162">Atoenx</tspan><tspan
                     x="-2.684 5.6057358 12.104583 15.681579 25.444195 30.647099 41.048122"
                     y="14.445"
                     sodipodi:role="line"
                     id="tspan164">Bajoeny</tspan><tspan
                     x="9.2650003 13.81754 26.820015 30.722193"
                     y="28.891001"
                     sodipodi:role="line"
                     id="tspan166">(+-)</tspan></text><g
                   id="g170"
                   transform="translate(203.571,105.727)" /></g></g><g
               id="g172"
               transform="translate(-42.519,56.693)" /></g></g><g
           id="g174"><path
             d="M 0,0 V -141.73404 H -141.73404 V 0 Z"
             style="fill:none;stroke:#ff0000;stroke-width:0.79701;stroke-linecap:butt;stroke-linejoin:miter;stroke-miterlimit:10;stroke-dasharray:none;stroke-opacity:1"
             id="path176" /></g><g
           id="g178"><path
             d="m -28.3468,-28.3468 v -85.04044 h -85.04044 v 85.04044 z"
             style="fill:#ffcccc;fill-opacity:0.6;fill-rule:nonzero;stroke:#000000;stroke-width:0.3985;stroke-linecap:butt;stroke-linejoin:miter;stroke-miterlimit:10;stroke-dasharray:none;stroke-opacity:0.6"
             id="path180" /></g><g
           id="g182"><g
             id="g184"><path
               d="m -103.11543,-92.47609 h 64.49684 v 47.85355 h -64.49684 z"
               style="fill:#ffcccc;fill-opacity:1;fill-rule:nonzero;stroke:none"
               id="path186" /></g><g
             id="g188"
             transform="translate(-99.213,-56.693)"><g
               id="g190"
               transform="translate(3.392)"><g
                 id="g192"
                 transform="translate(-65.231,-105.727)"><text
                   transform="matrix(1,0,0,-1,65.231,105.727)"
                   style="font-variant:normal;font-weight:normal;font-size:11.9552px;font-family:CMR12;-inkscape-font-specification:CMR12;writing-mode:lr-tb;fill:#000000;fill-opacity:1;fill-rule:nonzero;stroke:none"
                   id="text200"><tspan
                     x="0 8.2897358 14.788583 18.365578 28.128195 33.331097 43.732121"
                     y="0"
                     sodipodi:role="line"
                     id="tspan194">Bajoenx</tspan><tspan
                     x="0 8.2897358 14.788583 18.365578 28.128195 33.331097 43.732121"
                     y="14.445"
                     sodipodi:role="line"
                     id="tspan196">Bajoeny</tspan><tspan
                     x="14.55 19.102541 26.902113 30.804291"
                     y="28.891001"
                     sodipodi:role="line"
                     id="tspan198">(--)</tspan></text><g
                   id="g202"
                   transform="translate(61.839,105.727)" /></g></g><g
               id="g204"
               transform="translate(99.213,56.693)" /></g></g><g
           id="g206"><path
             d="M 0,0 V 141.73404 H -141.73404 V 0 Z"
             style="fill:none;stroke:#0000ff;stroke-width:0.79701;stroke-linecap:butt;stroke-linejoin:miter;stroke-miterlimit:10;stroke-dasharray:none;stroke-opacity:1"
             id="path208" /></g><g
           id="g210"><path
             d="m -28.3468,28.3468 v 85.04044 h -85.04044 V 28.3468 Z"
             style="fill:#ccccff;fill-opacity:0.6;fill-rule:nonzero;stroke:#000000;stroke-width:0.3985;stroke-linecap:butt;stroke-linejoin:miter;stroke-miterlimit:10;stroke-dasharray:none;stroke-opacity:0.6"
             id="path212" /></g><g
           id="g214"><g
             id="g216"><path
               d="m -103.11543,49.25795 h 64.49684 V 97.1115 h -64.49684 z"
               style="fill:#ccccff;fill-opacity:1;fill-rule:nonzero;stroke:none"
               id="path218" /></g><g
             id="g220"
             transform="translate(-99.213,85.04)"><g
               id="g222"
               transform="translate(3.392)"><g
                 id="g224"
                 transform="translate(-65.231,-247.46)"><text
                   transform="matrix(1,0,0,-1,65.231,247.46)"
                   style="font-variant:normal;font-weight:normal;font-size:11.9552px;font-family:CMR12;-inkscape-font-specification:CMR12;writing-mode:lr-tb;fill:#000000;fill-opacity:1;fill-rule:nonzero;stroke:none"
                   id="text232"><tspan
                     x="0 8.2897358 14.788583 18.365578 28.128195 33.331097 43.732121"
                     y="0"
                     sodipodi:role="line"
                     id="tspan226">Bajoenx</tspan><tspan
                     x="0.89499998 9.6701164 12.921931 17.474472 27.225132 32.428036 42.841015"
                     y="14.446"
                     sodipodi:role="line"
                     id="tspan228">Altoeny</tspan><tspan
                     x="11.948 16.50054 24.300112 33.405193"
                     y="28.892"
                     sodipodi:role="line"
                     id="tspan230">(-+)</tspan></text><g
                   id="g234"
                   transform="translate(61.839,247.46)" /></g></g><g
               id="g236"
               transform="translate(99.213,-85.04)" /></g></g></g></g></g></svg>
